{
	"asset":{
		"generator":"Khronos glTF Blender I/O v5.2.40",
		"version":"2.0"
	},
	"scene":0,
	"scenes":[
		{
			"name":"Scene",
			"nodes":[
				0
			]
		}
	],
	"nodes":[
		{
			"mesh":0,
			"name":"Placa madre",
			"scale":[
				0.16237184405326843,
				0.16237184405326843,
				0.16237184405326843
			]
		}
	],
	"materials":[
		{
			"alphaMode":"BLEND",
			"doubleSided":true,
			"name":"Placa madre",
			"pbrMetallicRoughness":{
				"baseColorTexture":{
					"index":0
				},
				"metallicFactor":0,
				"roughnessFactor":0.5
			}
		}
	],
	"meshes":[
		{
			"name":"Placa madre",
			"primitives":[
				{
					"attributes":{
						"POSITION":0,
						"NORMAL":1,
						"TEXCOORD_0":2
					},
					"indices":3,
					"material":0
				}
			]
		}
	],
	"textures":[
		{
			"sampler":0,
			"source":0
		}
	],
	"images":[
		{
			"mimeType":"image/png",
			"name":"Placa madre",
			"uri":"Placa%20madre.png"
		}
	],
	"accessors":[
		{
			"bufferView":0,
			"componentType":5126,
			"count":1220,
			"max":[
				40.881710052490234,
				4.815001487731934,
				36.486122131347656
			],
			"min":[
				-39.12908935546875,
				1.133254051208496,
				-34.18850326538086
			],
			"type":"VEC3"
		},
		{
			"bufferView":1,
			"componentType":5126,
			"count":1220,
			"type":"VEC3"
		},
		{
			"bufferView":2,
			"componentType":5126,
			"count":1220,
			"type":"VEC2"
		},
		{
			"bufferView":3,
			"componentType":5123,
			"count":1830,
			"type":"SCALAR"
		}
	],
	"bufferViews":[
		{
			"buffer":0,
			"byteLength":14640,
			"byteOffset":0,
			"target":34962
		},
		{
			"buffer":0,
			"byteLength":14640,
			"byteOffset":14640,
			"target":34962
		},
		{
			"buffer":0,
			"byteLength":9760,
			"byteOffset":29280,
			"target":34962
		},
		{
			"buffer":0,
			"byteLength":3660,
			"byteOffset":39040,
			"target":34963
		}
	],
	"samplers":[
		{
			"magFilter":9729,
			"minFilter":9987,
			"wrapS":33071,
			"wrapT":33071
		}
	],
	"buffers":[
		{
			"byteLength":42700,
			"uri":"tarjeta%20madre%20prueba1.bin"
		}
	]
}
